<?xml version="1.0" encoding="UTF-8" standalone="no"?>
<svg xmlns="http://www.w3.org/2000/svg" width="713" height="704" viewBox="0 0 713 704">
  <defs>
    <style>
      .purple-fill { fill: #7B4AE0; }
    </style>
  </defs>
  <rect x="100" y="0" width="516" height="116" class="purple-fill"/>
  <rect x="88" y="4" width="12" height="248" class="purple-fill"/>
  <rect x="616" y="4" width="12" height="696" class="purple-fill"/>
  <rect x="76" y="8" width="12" height="688" class="purple-fill"/>
  <rect x="628" y="8" width="8" height="688" class="purple-fill"/>
  <rect x="68" y="12" width="8" height="680" class="purple-fill"/>
  <rect x="636" y="12" width="8" height="680" class="purple-fill"/>
  <rect x="60" y="16" width="8" height="672" class="purple-fill"/>
  <rect x="644" y="16" width="8" height="672" class="purple-fill"/>
  <rect x="56" y="20" width="4" height="664" class="purple-fill"/>
  <rect x="652" y="20" width="8" height="664" class="purple-fill"/>
  <rect x="48" y="24" width="8" height="656" class="purple-fill"/>
  <rect x="660" y="24" width="4" height="656" class="purple-fill"/>
  <rect x="44" y="28" width="4" height="648" class="purple-fill"/>
  <rect x="664" y="28" width="4" height="648" class="purple-fill"/>
  <rect x="40" y="32" width="4" height="640" class="purple-fill"/>
  <rect x="668" y="32" width="4" height="640" class="purple-fill"/>
  <rect x="36" y="36" width="4" height="632" class="purple-fill"/>
  <rect x="672" y="36" width="4" height="632" class="purple-fill"/>
  <rect x="32" y="40" width="4" height="628" class="purple-fill"/>
  <rect x="676" y="40" width="4" height="624" class="purple-fill"/>
  <rect x="28" y="44" width="4" height="616" class="purple-fill"/>
  <rect x="680" y="44" width="4" height="616" class="purple-fill"/>
  <rect x="24" y="48" width="4" height="608" class="purple-fill"/>
  <rect x="684" y="48" width="4" height="608" class="purple-fill"/>
  <rect x="20" y="52" width="4" height="600" class="purple-fill"/>
  <rect x="688" y="52" width="4" height="600" class="purple-fill"/>
  <rect x="16" y="60" width="4" height="584" class="purple-fill"/>
  <rect x="692" y="60" width="4" height="588" class="purple-fill"/>
  <rect x="696" y="64" width="4" height="576" class="purple-fill"/>
  <rect x="12" y="68" width="4" height="572" class="purple-fill"/>
  <rect x="8" y="72" width="4" height="560" class="purple-fill"/>
  <rect x="700" y="72" width="4" height="560" class="purple-fill"/>
  <rect x="704" y="80" width="4" height="544" class="purple-fill"/>
  <rect x="4" y="84" width="4" height="536" class="purple-fill"/>
  <rect x="708" y="92" width="4" height="520" class="purple-fill"/>
  <rect x="0" y="96" width="4" height="512" class="purple-fill"/>
  <rect x="100" y="116" width="188" height="4" class="purple-fill"/>
  <rect x="308" y="116" width="308" height="4" class="purple-fill"/>
  <rect x="712" y="116" width="1" height="472" class="purple-fill"/>
  <rect x="100" y="120" width="184" height="52" class="purple-fill"/>
  <rect x="424" y="120" width="192" height="48" class="purple-fill"/>
  <rect x="424" y="168" width="32" height="124" class="purple-fill"/>
  <rect x="504" y="168" width="112" height="4" class="purple-fill"/>
  <rect x="100" y="172" width="92" height="4" class="purple-fill"/>
  <rect x="252" y="172" width="32" height="120" class="purple-fill"/>
  <rect x="456" y="172" width="12" height="108" class="purple-fill"/>
  <rect x="520" y="172" width="96" height="4" class="purple-fill"/>
  <rect x="100" y="176" width="80" height="4" class="purple-fill"/>
  <rect x="248" y="176" width="4" height="112" class="purple-fill"/>
  <rect x="468" y="176" width="8" height="96" class="purple-fill"/>
  <rect x="532" y="176" width="84" height="4" class="purple-fill"/>
  <rect x="100" y="180" width="72" height="4" class="purple-fill"/>
  <rect x="232" y="180" width="16" height="92" class="purple-fill"/>
  <rect x="476" y="180" width="8" height="84" class="purple-fill"/>
  <rect x="536" y="180" width="80" height="4" class="purple-fill"/>
  <rect x="100" y="184" width="64" height="4" class="purple-fill"/>
  <rect x="220" y="184" width="12" height="76" class="purple-fill"/>
  <rect x="284" y="184" width="4" height="136" class="purple-fill"/>
  <rect x="316" y="184" width="92" height="16" class="purple-fill"/>
  <rect x="484" y="184" width="8" height="72" class="purple-fill"/>
  <rect x="544" y="184" width="72" height="4" class="purple-fill"/>
  <rect x="100" y="188" width="56" height="4" class="purple-fill"/>
  <rect x="212" y="188" width="8" height="64" class="purple-fill"/>
  <rect x="288" y="188" width="28" height="136" class="purple-fill"/>
  <rect x="408" y="188" width="16" height="132" class="purple-fill"/>
  <rect x="492" y="188" width="4" height="64" class="purple-fill"/>
  <rect x="552" y="188" width="64" height="4" class="purple-fill"/>
  <rect x="100" y="192" width="52" height="4" class="purple-fill"/>
  <rect x="208" y="192" width="4" height="56" class="purple-fill"/>
  <rect x="496" y="192" width="4" height="56" class="purple-fill"/>
  <rect x="556" y="192" width="60" height="4" class="purple-fill"/>
  <rect x="100" y="196" width="48" height="4" class="purple-fill"/>
  <rect x="204" y="196" width="4" height="48" class="purple-fill"/>
  <rect x="500" y="196" width="4" height="48" class="purple-fill"/>
  <rect x="560" y="196" width="56" height="4" class="purple-fill"/>
  <rect x="100" y="200" width="44" height="4" class="purple-fill"/>
  <rect x="200" y="200" width="4" height="24" class="purple-fill"/>
  <rect x="316" y="200" width="24" height="80" class="purple-fill"/>
  <rect x="368" y="200" width="40" height="76" class="purple-fill"/>
  <rect x="504" y="200" width="4" height="20" class="purple-fill"/>
  <rect x="564" y="200" width="52" height="4" class="purple-fill"/>
  <rect x="100" y="204" width="40" height="4" class="purple-fill"/>
  <rect x="568" y="204" width="48" height="4" class="purple-fill"/>
  <rect x="100" y="208" width="36" height="4" class="purple-fill"/>
  <rect x="572" y="208" width="44" height="4" class="purple-fill"/>
  <rect x="100" y="212" width="32" height="4" class="purple-fill"/>
  <rect x="576" y="212" width="40" height="4" class="purple-fill"/>
  <rect x="100" y="216" width="28" height="24" class="purple-fill"/>
  <rect x="580" y="216" width="36" height="24" class="purple-fill"/>
  <rect x="200" y="228" width="4" height="20" class="purple-fill"/>
  <rect x="504" y="228" width="4" height="20" class="purple-fill"/>
  <rect x="196" y="232" width="4" height="20" class="purple-fill"/>
  <rect x="508" y="232" width="4" height="16" class="purple-fill"/>
  <rect x="192" y="236" width="4" height="20" class="purple-fill"/>
  <rect x="512" y="236" width="4" height="16" class="purple-fill"/>
  <rect x="100" y="240" width="24" height="4" class="purple-fill"/>
  <rect x="188" y="240" width="4" height="20" class="purple-fill"/>
  <rect x="516" y="240" width="4" height="16" class="purple-fill"/>
  <rect x="584" y="240" width="32" height="4" class="purple-fill"/>
  <rect x="100" y="244" width="20" height="4" class="purple-fill"/>
  <rect x="184" y="244" width="4" height="176" class="purple-fill"/>
  <rect x="520" y="244" width="4" height="176" class="purple-fill"/>
  <rect x="588" y="244" width="28" height="4" class="purple-fill"/>
  <rect x="180" y="248" width="4" height="172" class="purple-fill"/>
  <rect x="524" y="248" width="4" height="172" class="purple-fill"/>
  <rect x="608" y="248" width="8" height="4" class="purple-fill"/>
  <rect x="88" y="252" width="8" height="4" class="purple-fill"/>
  <rect x="176" y="252" width="4" height="168" class="purple-fill"/>
  <rect x="216" y="252" width="4" height="4" class="purple-fill"/>
  <rect x="528" y="252" width="4" height="168" class="purple-fill"/>
  <rect x="612" y="252" width="4" height="4" class="purple-fill"/>
  <rect x="88" y="256" width="4" height="444" class="purple-fill"/>
  <rect x="172" y="256" width="4" height="164" class="purple-fill"/>
  <rect x="484" y="256" width="4" height="4" class="purple-fill"/>
  <rect x="532" y="256" width="4" height="164" class="purple-fill"/>
  <rect x="152" y="260" width="20" height="160" class="purple-fill"/>
  <rect x="224" y="260" width="8" height="4" class="purple-fill"/>
  <rect x="536" y="260" width="24" height="160" class="purple-fill"/>
  <rect x="92" y="264" width="4" height="436" class="purple-fill"/>
  <rect x="148" y="264" width="4" height="440" class="purple-fill"/>
  <rect x="228" y="264" width="4" height="4" class="purple-fill"/>
  <rect x="476" y="264" width="4" height="4" class="purple-fill"/>
  <rect x="560" y="264" width="4" height="440" class="purple-fill"/>
  <rect x="612" y="264" width="4" height="436" class="purple-fill"/>
  <rect x="96" y="268" width="4" height="432" class="purple-fill"/>
  <rect x="144" y="268" width="4" height="436" class="purple-fill"/>
  <rect x="188" y="268" width="4" height="152" class="purple-fill"/>
  <rect x="516" y="268" width="4" height="152" class="purple-fill"/>
  <rect x="608" y="268" width="4" height="436" class="purple-fill"/>
  <rect x="100" y="272" width="4" height="432" class="purple-fill"/>
  <rect x="192" y="272" width="4" height="148" class="purple-fill"/>
  <rect x="236" y="272" width="12" height="4" class="purple-fill"/>
  <rect x="468" y="272" width="4" height="4" class="purple-fill"/>
  <rect x="512" y="272" width="4" height="148" class="purple-fill"/>
  <rect x="564" y="272" width="4" height="12" class="purple-fill"/>
  <rect x="604" y="272" width="4" height="432" class="purple-fill"/>
  <rect x="104" y="276" width="4" height="428" class="purple-fill"/>
  <rect x="196" y="276" width="4" height="144" class="purple-fill"/>
  <rect x="240" y="276" width="8" height="4" class="purple-fill"/>
  <rect x="372" y="276" width="36" height="60" class="purple-fill"/>
  <rect x="508" y="276" width="4" height="144" class="purple-fill"/>
  <rect x="200" y="280" width="4" height="140" class="purple-fill"/>
  <rect x="244" y="280" width="4" height="4" class="purple-fill"/>
  <rect x="316" y="280" width="20" height="72" class="purple-fill"/>
  <rect x="456" y="280" width="8" height="4" class="purple-fill"/>
  <rect x="504" y="280" width="4" height="140" class="purple-fill"/>
  <rect x="600" y="280" width="4" height="424" class="purple-fill"/>
  <rect x="108" y="284" width="4" height="420" class="purple-fill"/>
  <rect x="204" y="284" width="4" height="136" class="purple-fill"/>
  <rect x="456" y="284" width="4" height="4" class="purple-fill"/>
  <rect x="500" y="284" width="4" height="136" class="purple-fill"/>
  <rect x="596" y="284" width="4" height="420" class="purple-fill"/>
  <rect x="112" y="288" width="4" height="416" class="purple-fill"/>
  <rect x="208" y="288" width="4" height="132" class="purple-fill"/>
  <rect x="496" y="288" width="4" height="132" class="purple-fill"/>
  <rect x="564" y="288" width="4" height="416" class="purple-fill"/>
  <rect x="592" y="288" width="4" height="416" class="purple-fill"/>
  <rect x="116" y="292" width="4" height="412" class="purple-fill"/>
  <rect x="140" y="292" width="4" height="412" class="purple-fill"/>
  <rect x="212" y="292" width="4" height="128" class="purple-fill"/>
  <rect x="260" y="292" width="24" height="4" class="purple-fill"/>
  <rect x="424" y="292" width="24" height="4" class="purple-fill"/>
  <rect x="492" y="292" width="4" height="128" class="purple-fill"/>
  <rect x="568" y="292" width="4" height="412" class="purple-fill"/>
  <rect x="588" y="292" width="4" height="412" class="purple-fill"/>
  <rect x="120" y="296" width="4" height="408" class="purple-fill"/>
  <rect x="136" y="296" width="4" height="408" class="purple-fill"/>
  <rect x="216" y="296" width="4" height="124" class="purple-fill"/>
  <rect x="264" y="296" width="20" height="4" class="purple-fill"/>
  <rect x="424" y="296" width="20" height="4" class="purple-fill"/>
  <rect x="488" y="296" width="4" height="124" class="purple-fill"/>
  <rect x="572" y="296" width="4" height="408" class="purple-fill"/>
  <rect x="584" y="296" width="4" height="408" class="purple-fill"/>
  <rect x="124" y="300" width="12" height="404" class="purple-fill"/>
  <rect x="220" y="300" width="4" height="120" class="purple-fill"/>
  <rect x="268" y="300" width="16" height="4" class="purple-fill"/>
  <rect x="424" y="300" width="16" height="4" class="purple-fill"/>
  <rect x="484" y="300" width="4" height="120" class="purple-fill"/>
  <rect x="576" y="300" width="8" height="404" class="purple-fill"/>
  <rect x="224" y="304" width="4" height="116" class="purple-fill"/>
  <rect x="272" y="304" width="12" height="4" class="purple-fill"/>
  <rect x="424" y="304" width="12" height="4" class="purple-fill"/>
  <rect x="480" y="304" width="4" height="116" class="purple-fill"/>
  <rect x="228" y="308" width="4" height="112" class="purple-fill"/>
  <rect x="276" y="308" width="8" height="4" class="purple-fill"/>
  <rect x="424" y="308" width="8" height="4" class="purple-fill"/>
  <rect x="476" y="308" width="4" height="112" class="purple-fill"/>
  <rect x="232" y="312" width="4" height="108" class="purple-fill"/>
  <rect x="280" y="312" width="4" height="4" class="purple-fill"/>
  <rect x="424" y="312" width="4" height="4" class="purple-fill"/>
  <rect x="472" y="312" width="4" height="108" class="purple-fill"/>
  <rect x="236" y="316" width="4" height="104" class="purple-fill"/>
  <rect x="408" y="320" width="12" height="4" class="purple-fill"/>
  <rect x="468" y="320" width="4" height="100" class="purple-fill"/>
  <rect x="240" y="324" width="4" height="96" class="purple-fill"/>
  <rect x="292" y="324" width="24" height="4" class="purple-fill"/>
  <rect x="408" y="324" width="8" height="4" class="purple-fill"/>
  <rect x="464" y="324" width="4" height="96" class="purple-fill"/>
  <rect x="244" y="328" width="4" height="92" class="purple-fill"/>
  <rect x="296" y="328" width="20" height="4" class="purple-fill"/>
  <rect x="408" y="328" width="4" height="4" class="purple-fill"/>
  <rect x="460" y="328" width="4" height="92" class="purple-fill"/>
  <rect x="248" y="332" width="4" height="88" class="purple-fill"/>
  <rect x="300" y="332" width="16" height="4" class="purple-fill"/>
  <rect x="456" y="332" width="4" height="88" class="purple-fill"/>
  <rect x="252" y="336" width="4" height="84" class="purple-fill"/>
  <rect x="304" y="336" width="12" height="4" class="purple-fill"/>
  <rect x="372" y="336" width="32" height="4" class="purple-fill"/>
  <rect x="452" y="336" width="4" height="84" class="purple-fill"/>
  <rect x="256" y="340" width="4" height="80" class="purple-fill"/>
  <rect x="308" y="340" width="8" height="4" class="purple-fill"/>
  <rect x="372" y="340" width="28" height="4" class="purple-fill"/>
  <rect x="448" y="340" width="4" height="80" class="purple-fill"/>
  <rect x="260" y="344" width="4" height="76" class="purple-fill"/>
  <rect x="312" y="344" width="4" height="4" class="purple-fill"/>
  <rect x="372" y="344" width="24" height="4" class="purple-fill"/>
  <rect x="444" y="344" width="4" height="76" class="purple-fill"/>
  <rect x="264" y="348" width="4" height="72" class="purple-fill"/>
  <rect x="372" y="348" width="20" height="4" class="purple-fill"/>
  <rect x="440" y="348" width="4" height="72" class="purple-fill"/>
  <rect x="268" y="352" width="4" height="68" class="purple-fill"/>
  <rect x="320" y="352" width="16" height="68" class="purple-fill"/>
  <rect x="372" y="352" width="16" height="68" class="purple-fill"/>
  <rect x="436" y="352" width="4" height="68" class="purple-fill"/>
  <rect x="272" y="356" width="4" height="64" class="purple-fill"/>
  <rect x="432" y="356" width="4" height="64" class="purple-fill"/>
  <rect x="276" y="360" width="4" height="60" class="purple-fill"/>
  <rect x="428" y="360" width="4" height="60" class="purple-fill"/>
  <rect x="280" y="364" width="4" height="56" class="purple-fill"/>
  <rect x="424" y="364" width="4" height="56" class="purple-fill"/>
  <rect x="284" y="368" width="4" height="52" class="purple-fill"/>
  <rect x="420" y="368" width="4" height="52" class="purple-fill"/>
  <rect x="288" y="372" width="4" height="48" class="purple-fill"/>
  <rect x="416" y="372" width="4" height="48" class="purple-fill"/>
  <rect x="292" y="376" width="4" height="44" class="purple-fill"/>
  <rect x="412" y="376" width="4" height="44" class="purple-fill"/>
  <rect x="296" y="380" width="4" height="40" class="purple-fill"/>
  <rect x="408" y="380" width="4" height="40" class="purple-fill"/>
  <rect x="300" y="384" width="4" height="36" class="purple-fill"/>
  <rect x="404" y="384" width="4" height="36" class="purple-fill"/>
  <rect x="304" y="388" width="4" height="32" class="purple-fill"/>
  <rect x="336" y="388" width="4" height="32" class="purple-fill"/>
  <rect x="368" y="388" width="4" height="32" class="purple-fill"/>
  <rect x="308" y="392" width="4" height="28" class="purple-fill"/>
  <rect x="340" y="392" width="28" height="28" class="purple-fill"/>
  <rect x="400" y="392" width="4" height="28" class="purple-fill"/>
  <rect x="312" y="396" width="8" height="24" class="purple-fill"/>
  <rect x="388" y="396" width="12" height="24" class="purple-fill"/>
  <rect x="152" y="420" width="16" height="284" class="purple-fill"/>
  <rect x="552" y="420" width="8" height="284" class="purple-fill"/>
  <rect x="168" y="448" width="12" height="256" class="purple-fill"/>
  <rect x="540" y="448" width="12" height="256" class="purple-fill"/>
  <rect x="180" y="452" width="16" height="252" class="purple-fill"/>
  <rect x="528" y="452" width="12" height="252" class="purple-fill"/>
  <rect x="196" y="456" width="12" height="248" class="purple-fill"/>
  <rect x="516" y="456" width="12" height="248" class="purple-fill"/>
  <rect x="208" y="460" width="16" height="244" class="purple-fill"/>
  <rect x="504" y="460" width="12" height="244" class="purple-fill"/>
  <rect x="224" y="464" width="12" height="240" class="purple-fill"/>
  <rect x="492" y="464" width="12" height="240" class="purple-fill"/>
  <rect x="236" y="468" width="12" height="92" class="purple-fill"/>
  <rect x="484" y="468" width="8" height="236" class="purple-fill"/>
  <rect x="248" y="472" width="8" height="88" class="purple-fill"/>
  <rect x="472" y="472" width="12" height="92" class="purple-fill"/>
  <rect x="256" y="476" width="8" height="80" class="purple-fill"/>
  <rect x="460" y="476" width="12" height="84" class="purple-fill"/>
  <rect x="264" y="480" width="4" height="72" class="purple-fill"/>
  <rect x="452" y="480" width="8" height="76" class="purple-fill"/>
  <rect x="268" y="484" width="4" height="64" class="purple-fill"/>
  <rect x="448" y="484" width="4" height="68" class="purple-fill"/>
  <rect x="444" y="488" width="4" height="64" class="purple-fill"/>
  <rect x="272" y="492" width="4" height="52" class="purple-fill"/>
  <rect x="440" y="492" width="4" height="56" class="purple-fill"/>
  <rect x="276" y="500" width="4" height="32" class="purple-fill"/>
  <rect x="436" y="500" width="4" height="40" class="purple-fill"/>
  <rect x="432" y="512" width="4" height="16" class="purple-fill"/>
  <rect x="456" y="556" width="4" height="4" class="purple-fill"/>
  <rect x="236" y="560" width="8" height="4" class="purple-fill"/>
  <rect x="468" y="560" width="4" height="4" class="purple-fill"/>
  <rect x="476" y="564" width="8" height="140" class="purple-fill"/>
  <rect x="344" y="572" width="24" height="132" class="purple-fill"/>
  <rect x="328" y="576" width="16" height="128" class="purple-fill"/>
  <rect x="368" y="576" width="16" height="128" class="purple-fill"/>
  <rect x="316" y="580" width="12" height="124" class="purple-fill"/>
  <rect x="384" y="580" width="12" height="124" class="purple-fill"/>
  <rect x="308" y="584" width="8" height="120" class="purple-fill"/>
  <rect x="396" y="584" width="8" height="120" class="purple-fill"/>
  <rect x="300" y="588" width="8" height="116" class="purple-fill"/>
  <rect x="404" y="588" width="8" height="116" class="purple-fill"/>
  <rect x="236" y="592" width="64" height="112" class="purple-fill"/>
  <rect x="412" y="592" width="64" height="112" class="purple-fill"/>
  <rect x="52" y="680" width="4" height="4" class="purple-fill"/>
  <rect x="84" y="696" width="4" height="4" class="purple-fill"/>
</svg>